<?xml version="1.0" standalone="no"?>
<!DOCTYPE svg PUBLIC "-//W3C//DTD SVG 20010904//EN"
 "http://www.w3.org/TR/2001/REC-SVG-20010904/DTD/svg10.dtd">
<svg version="1.0" xmlns="http://www.w3.org/2000/svg"
 width="600.000000pt" height="563.000000pt" viewBox="0 0 600.000000 563.000000"
 preserveAspectRatio="xMidYMid meet">

<g transform="translate(0.000000,563.000000) scale(0.100000,-0.100000)"
fill="#000000" stroke="none">
<path d="M2850 5140 c-435 -85 -766 -314 -982 -679 -92 -156 -163 -366 -175
-518 -3 -40 -10 -73 -14 -73 -5 0 -9 -53 -9 -117 0 -80 3 -113 10 -103 7 11
10 2 10 -33 0 -120 65 -339 147 -498 97 -188 237 -352 413 -483 271 -202 575
-287 941 -264 545 34 1029 410 1210 940 48 139 60 218 66 403 4 157 2 196 -17
299 -97 531 -502 968 -1020 1099 -183 47 -421 58 -580 27z m550 -36 c101 -25
172 -50 272 -98 394 -187 668 -537 764 -976 26 -116 26 -429 2 -540 -98 -438
-371 -787 -763 -975 -190 -91 -382 -135 -592 -135 -674 0 -1226 452 -1369
1122 -28 128 -25 422 5 543 61 250 161 448 316 625 188 217 449 371 742 440
177 41 441 39 623 -6z"/>
<path d="M2915 5100 c-459 -58 -847 -333 -1054 -748 -105 -210 -154 -472 -131
-710 29 -312 149 -579 360 -805 190 -204 429 -336 725 -403 114 -26 408 -26
520 0 83 19 166 42 200 56 105 42 135 56 184 82 105 57 195 123 288 212 216
206 347 450 405 751 20 105 17 359 -5 475 -52 264 -167 485 -357 683 -192 200
-438 335 -715 392 -95 19 -321 27 -420 15z m141 -61 c3 -6 -11 -28 -32 -50
-24 -24 -32 -39 -23 -39 8 0 20 5 26 11 25 25 38 -16 19 -61 -4 -9 -5 -26 -4
-39 4 -30 -18 -39 -27 -11 -6 20 -8 21 -26 4 -17 -15 -19 -15 -25 0 -10 26 4
49 26 43 15 -4 20 0 20 15 0 17 -5 20 -30 15 -36 -8 -40 10 -10 38 12 10 30
34 41 52 22 35 33 40 45 22z m102 -50 c2 -24 8 -49 13 -55 6 -7 4 -16 -6 -24
-8 -7 -15 -20 -15 -29 0 -19 -23 -88 -33 -97 -4 -4 -7 18 -7 50 0 53 -1 56
-19 46 -11 -5 -22 -10 -25 -10 -9 0 -7 38 3 44 4 3 11 27 15 53 4 36 12 51 29
59 34 17 42 11 45 -37z m612 -133 c0 -26 -24 -51 -40 -41 -15 9 -12 26 7 47
22 25 33 23 33 -6z m-1341 -12 c12 -9 44 -48 69 -87 26 -39 52 -77 57 -84 7
-11 1 -22 -24 -44 -29 -27 -39 -30 -83 -27 -49 3 -49 3 -44 -24 6 -30 -6 -44
-22 -25 -6 6 -27 41 -47 76 -25 44 -33 67 -25 75 5 5 10 26 10 46 0 35 19 74
48 98 21 16 33 15 61 -4z m1381 -14 c0 -5 14 -16 30 -25 40 -21 41 -55 2 -55
-22 0 -30 -7 -39 -30 -8 -20 -18 -30 -32 -30 -12 0 -21 5 -21 10 0 6 7 10 16
10 10 0 14 7 12 23 -3 19 -9 22 -43 21 -22 -1 -50 -5 -62 -9 -29 -9 -31 14 -4
39 15 14 26 15 62 7 24 -6 60 -10 79 -10 l35 1 -30 7 c-27 6 -31 11 -26 41 1
13 21 13 21 0z m-76 -112 c8 -14 6 -22 -12 -38 -26 -25 -27 -28 -5 -52 19 -21
12 -34 -13 -20 -11 6 -27 5 -46 -2 -27 -10 -32 -8 -54 18 -30 34 -23 48 9 18
13 -12 29 -22 35 -22 23 0 12 18 -23 40 -36 22 -43 34 -26 45 5 3 21 -6 35
-20 28 -28 46 -32 46 -11 0 8 6 16 13 19 10 4 10 7 0 18 -7 7 -13 17 -13 22 0
15 42 3 54 -15z m-438 -23 c128 -32 277 -106 380 -189 399 -321 483 -891 193
-1312 -120 -174 -332 -326 -538 -385 -154 -44 -367 -45 -526 -2 -93 24 -237
96 -318 157 -223 168 -351 382 -393 660 -15 96 -16 123 -4 215 52 426 333 751
740 856 137 35 327 35 466 0z m878 -309 c8 -14 8 -20 -3 -23 -7 -3 -23 -16
-34 -29 -23 -26 -43 -31 -50 -11 -3 9 -7 9 -18 1 -26 -22 -99 -38 -111 -26
-21 21 15 56 72 71 48 12 54 12 66 -4 16 -22 34 -11 34 21 0 30 26 30 44 0z
m-2190 -81 c5 -26 12 -35 24 -33 11 2 18 -5 20 -21 4 -23 43 -64 85 -87 33
-19 1 -26 -39 -9 -34 14 -39 14 -56 -1 -10 -10 -18 -23 -18 -31 0 -10 -11 -13
-42 -11 -43 3 -68 28 -28 28 20 0 22 4 16 33 -7 36 -38 67 -67 67 -10 0 -19 7
-19 15 0 19 34 37 54 29 12 -5 19 3 27 25 15 41 35 39 43 -4z m2206 -4 c0 -11
12 -29 26 -40 48 -37 11 -72 -48 -46 -13 5 -18 3 -18 -10 0 -9 -4 -14 -9 -11
-5 3 -23 3 -40 0 -21 -5 -31 -12 -31 -25 0 -11 7 -19 16 -19 11 0 14 -6 8 -22
-7 -25 -13 -34 -17 -27 -1 2 -13 19 -25 37 -23 33 -23 34 -6 54 18 19 18 20 1
29 -26 15 -13 26 38 33 43 7 58 20 34 28 -19 6 20 38 47 38 17 0 24 -6 24 -19z
m70 -12 c0 -20 -24 -26 -35 -9 -8 13 14 42 26 34 5 -3 9 -14 9 -25z m-120
-908 c0 -5 -7 -11 -15 -15 -19 -7 -20 -26 -2 -26 8 0 28 7 46 16 29 14 34 14
56 0 14 -9 25 -22 25 -29 0 -20 -27 -53 -37 -44 -4 5 0 13 10 18 42 24 0 46
-45 23 -53 -27 -102 2 -78 47 11 19 40 27 40 10z m-2084 -18 c18 -24 17 -60
-1 -66 -11 -5 -13 0 -9 22 8 37 -20 48 -70 27 -45 -19 -54 -40 -30 -68 19 -21
19 -21 -3 -9 -41 21 -38 75 5 100 29 17 93 13 108 -6z m2048 -62 c3 -5 -4 -11
-17 -15 l-22 -5 24 -23 c16 -16 25 -19 28 -10 3 6 12 12 20 12 9 0 13 -6 9
-15 -3 -8 3 -19 14 -25 27 -14 30 -13 30 15 0 24 10 32 23 19 7 -7 -23 -74
-34 -74 -4 0 -27 11 -50 25 -24 14 -52 25 -61 25 -22 0 -23 12 -3 50 16 30 29
37 39 21z m-2014 -26 c11 -13 8 -17 -19 -26 -17 -6 -31 -17 -31 -25 0 -18 20
-18 47 1 19 13 22 13 27 -2 8 -19 14 -14 -63 -53 -51 -25 -66 -29 -72 -18 -6
9 0 17 21 26 28 11 38 31 24 44 -3 4 -19 -1 -35 -10 -25 -15 -31 -15 -39 -2
-7 11 4 20 51 40 32 15 62 30 66 33 9 9 9 9 23 -8z m1970 -61 c0 -3 -10 -14
-22 -24 l-23 -18 20 -22 c20 -23 66 -50 84 -50 5 0 14 12 19 28 l10 27 1 -25
c2 -54 -57 -67 -108 -25 -40 34 -46 59 -24 89 16 23 43 35 43 20z m-1908 -46
c7 -19 -122 -92 -136 -77 -8 8 -8 13 -1 15 6 3 33 20 60 39 54 37 71 42 77 23z
m12 -103 c-18 -55 -48 -95 -61 -82 -3 4 4 30 17 57 13 27 21 53 18 56 -4 3 1
14 10 23 29 31 37 5 16 -54z m1826 45 c0 -5 -7 -10 -16 -10 -8 0 -12 5 -9 10
3 6 10 10 16 10 5 0 9 -4 9 -10z m-1780 -60 c-8 -5 -19 -9 -25 -9 -5 0 -4 3 3
6 6 2 12 12 12 21 0 13 3 13 12 4 10 -10 10 -15 -2 -22z m1857 1 c31 -22 28
-34 -6 -26 -15 3 -52 8 -81 10 -57 4 -65 8 -55 24 10 16 116 10 142 -8z
m-2000 -18 c-3 -3 -11 -2 -17 2 -9 6 -9 10 1 16 14 8 27 -7 16 -18z m202 -19
c23 -23 23 -26 8 -42 -16 -15 -17 -14 -17 11 0 32 -10 34 -34 8 -13 -15 -14
-20 -4 -24 11 -4 11 -7 0 -18 -11 -12 -14 -12 -22 0 -7 12 -11 12 -24 -2 -23
-23 -20 -37 9 -37 28 0 34 -15 9 -24 -9 -3 -17 -6 -18 -6 -1 0 -12 14 -25 30
l-22 30 53 50 c29 27 55 49 58 49 3 1 16 -11 29 -25z m1651 6 c0 -5 -6 -10
-14 -10 -24 0 -30 -22 -11 -37 15 -10 20 -10 26 -1 7 10 11 10 21 -1 11 -11
11 -14 0 -18 -10 -4 -9 -9 4 -24 23 -26 31 -24 42 9 8 23 11 25 17 9 5 -12 0
-26 -15 -43 -13 -13 -26 -24 -30 -24 -3 0 -30 23 -59 50 l-54 51 23 24 c24 25
50 33 50 15z m130 -50 c0 -5 -4 -10 -10 -10 -5 0 -10 5 -10 10 0 6 5 10 10 10
6 0 10 -4 10 -10z m-161 -79 c32 -34 39 -47 30 -57 -9 -11 -17 -6 -39 25 -15
21 -39 47 -53 58 -24 19 -25 21 -9 37 15 15 17 15 23 -1 4 -10 26 -38 48 -62z
m-1558 59 c23 -13 25 -33 3 -51 -13 -11 -14 -9 -9 14 6 21 4 27 -9 27 -13 0
-16 -8 -15 -37 3 -49 -15 -83 -44 -83 -40 0 -66 50 -34 63 10 4 12 -3 9 -24
-2 -16 0 -29 6 -29 19 0 32 28 26 58 -5 23 -1 35 15 51 24 24 26 25 52 11z
m1477 -48 c2 -7 -7 -12 -22 -12 -32 0 -34 -22 -6 -67 22 -37 55 -43 76 -15 10
13 13 14 14 3 0 -20 -30 -51 -50 -51 -28 0 -68 38 -81 77 -11 35 -10 38 16 60
28 24 46 26 53 5z m-1385 -30 c16 -17 16 -21 2 -32 -13 -10 -15 -9 -15 8 0 30
-15 35 -36 11 -16 -17 -16 -22 -4 -29 13 -8 12 -12 -4 -27 -10 -10 -16 -13
-12 -6 3 6 2 14 -3 18 -13 7 -34 -32 -25 -46 3 -6 15 -9 25 -6 22 6 26 -11 5
-19 -8 -3 -22 0 -31 8 -46 38 -45 37 -19 65 13 15 34 41 45 60 22 35 36 35 72
-5z m1287 -37 c0 -8 -4 -15 -9 -15 -13 0 -22 16 -14 24 11 11 23 6 23 -9z
m-46 -16 c-9 -15 14 -29 47 -29 31 0 62 -31 57 -57 -2 -9 -14 -23 -28 -30 -21
-11 -27 -10 -37 4 -16 21 -8 30 12 13 13 -10 18 -11 28 -1 9 10 8 15 -7 27
-11 8 -29 14 -41 14 -12 0 -26 5 -33 12 -15 15 -16 58 -1 58 5 0 7 -5 3 -11z
m-1108 -51 c-3 -13 -9 -49 -13 -80 -3 -32 -9 -58 -12 -58 -25 1 -35 49 -17 79
17 28 -5 21 -33 -10 -17 -18 -33 -30 -37 -26 -7 6 94 113 110 115 4 1 6 -8 2
-20z m1022 -6 c2 -8 -5 -11 -20 -10 -19 3 -23 -1 -20 -21 3 -31 11 -39 21 -22
7 11 11 9 20 -8 10 -17 9 -21 -5 -21 -11 0 -14 -5 -9 -17 16 -40 17 -53 3 -53
-15 0 -75 127 -64 137 12 12 51 31 60 29 6 -1 12 -8 14 -14z m-895 -26 c9 -7
17 -22 16 -32 0 -17 -2 -17 -16 4 -21 31 -40 28 -63 -10 -22 -36 -26 -73 -10
-83 19 -12 11 -26 -9 -15 -41 21 -39 78 3 123 27 30 52 34 79 13z m796 -30
c33 -35 39 -96 12 -120 -27 -25 -66 -14 -86 24 -22 43 -19 86 7 104 30 21 41
20 67 -8z m-709 -82 c0 -54 -3 -75 -12 -72 -16 6 -28 52 -17 69 4 7 3 19 -2
25 -10 13 8 54 23 54 5 0 8 -34 8 -76z m111 55 c70 -37 28 -161 -49 -145 l-28
7 15 74 c16 77 23 85 62 64z m413 -21 c-4 -6 -10 -5 -15 3 -14 22 -10 33 6 19
8 -7 12 -17 9 -22z m-274 -3 c0 -12 -4 -13 -19 -6 -23 13 -31 5 -31 -27 0 -17
4 -23 15 -18 10 4 15 -1 15 -14 0 -13 -5 -18 -15 -14 -11 5 -15 -1 -15 -25 0
-33 8 -39 28 -19 6 6 15 9 19 5 4 -4 2 -12 -4 -18 -14 -14 -78 -7 -77 9 1 6 2
41 3 77 l1 65 40 0 c29 0 40 -4 40 -15z m150 -49 c0 -35 3 -71 6 -80 4 -11 0
-16 -14 -16 -17 0 -20 8 -24 73 -5 79 -4 87 18 87 11 0 14 -15 14 -64z m70 34
c14 -34 27 -39 32 -12 2 9 3 -10 2 -43 -1 -42 -5 -60 -14 -60 -7 0 -14 13 -16
28 -1 15 -14 48 -29 73 -24 41 -25 44 -7 44 12 0 24 -11 32 -30z m-150 -7 c6
-16 15 -38 22 -50 11 -22 5 -53 -10 -53 -5 0 -15 20 -22 45 -9 33 -16 43 -25
35 -8 -7 -10 -2 -7 20 5 38 29 39 42 3z m-370 -13 c0 -5 -4 -10 -10 -10 -5 0
-10 -9 -10 -20 0 -11 -7 -20 -15 -20 -8 0 -15 5 -15 10 0 6 4 10 9 10 5 0 13
9 16 20 7 21 25 28 25 10z m-63 -16 c-3 -3 -12 -4 -19 -1 -8 3 -5 6 6 6 11 1
17 -2 13 -5z m413 -84 c0 -5 -7 -10 -16 -10 -8 0 -12 5 -9 10 3 6 10 10 16 10
5 0 9 -4 9 -10z"/>
<path d="M2366 4809 c-14 -17 -26 -35 -26 -40 0 -15 42 -10 54 6 8 10 15 12
26 5 13 -9 13 -12 -3 -24 -15 -12 -16 -15 -2 -26 13 -11 18 -10 30 6 12 17 14
18 20 2 4 -9 4 -22 1 -27 -4 -6 -1 -19 6 -30 10 -17 9 -23 -6 -40 -19 -21 -19
-21 1 -21 11 0 30 11 42 24 l23 24 -51 76 c-66 97 -81 106 -115 65z"/>
<path d="M2340 4697 c0 -12 9 -28 20 -35 24 -15 24 -14 4 26 -18 38 -24 40
-24 9z"/>
<path d="M2396 4641 c-3 -5 1 -11 9 -15 9 -3 15 0 15 9 0 16 -16 20 -24 6z"/>
<path d="M2855 4671 c-316 -75 -566 -294 -681 -596 -34 -90 -65 -279 -59 -359
20 -265 114 -475 292 -647 140 -136 295 -216 494 -253 415 -78 847 149 1024
537 62 138 80 224 80 397 0 179 -16 252 -89 405 -121 254 -338 434 -616 510
-99 27 -341 30 -445 6z m426 -22 c315 -77 572 -319 669 -629 155 -495 -126
-1011 -637 -1167 -79 -24 -104 -27 -243 -27 -167 0 -238 14 -374 70 -138 58
-314 203 -397 325 -215 317 -218 724 -8 1038 127 191 334 336 558 391 111 27
319 27 432 -1z"/>
<path d="M3134 4611 c-178 -75 -165 -63 -214 -203 -23 -68 -52 -153 -64 -190
-11 -37 -24 -68 -28 -68 -3 0 -43 42 -87 94 l-82 93 -137 6 c-111 4 -139 2
-148 -10 -7 -7 -15 -53 -19 -101 -4 -48 -10 -106 -14 -129 l-8 -41 134 -156
c74 -86 131 -160 128 -166 -3 -5 -18 -10 -33 -11 -15 0 -67 -8 -117 -18 l-90
-17 -77 -124 -77 -124 117 -87 118 -87 194 39 c228 45 225 45 215 22 -4 -10
-24 -65 -45 -122 l-37 -104 70 -127 69 -128 47 20 c25 11 82 36 126 55 92 39
100 46 113 93 16 54 112 323 118 329 5 5 12 -2 108 -118 l59 -72 146 3 146 3
7 65 c4 36 12 98 18 139 l10 74 -68 76 c-37 42 -80 92 -96 111 -15 19 -46 54
-68 78 -22 24 -37 47 -32 51 5 5 60 18 123 29 63 12 120 27 127 34 17 17 144
226 144 236 -1 4 -52 44 -115 89 l-115 83 -107 -21 c-60 -11 -151 -29 -203
-39 -52 -11 -96 -17 -98 -16 -2 2 16 57 39 123 l42 118 -64 122 c-35 68 -69
125 -75 127 -6 2 -51 -13 -100 -33z m-62 -518 c10 -9 18 -26 18 -39 0 -24 -33
-54 -59 -54 -23 0 -51 31 -51 56 0 48 55 70 92 37z m286 -119 c26 -18 28 -50
5 -76 -20 -22 -51 -23 -75 -1 -24 21 -23 48 2 73 24 24 38 25 68 4z m-226 -46
c-21 -21 -13 -32 61 -88 59 -45 68 -55 50 -58 -23 -3 -27 -15 -39 -115 -6 -52
-8 -57 -21 -44 -13 13 -24 11 -90 -19 -82 -37 -102 -42 -83 -19 15 18 9 24
-79 85 -58 41 -62 45 -39 48 24 3 26 7 33 85 8 93 12 105 29 82 11 -15 18 -14
76 11 36 15 69 31 75 36 5 4 16 8 24 8 12 0 12 -3 3 -12z m-307 -22 c19 -28 9
-58 -25 -76 -24 -13 -54 0 -70 31 -17 30 11 69 50 69 20 0 35 -8 45 -24z m569
-252 c23 -22 20 -60 -6 -78 -30 -21 -44 -20 -68 4 -36 36 -16 90 35 90 13 0
31 -7 39 -16z m-538 -59 c20 -30 11 -62 -22 -77 -37 -17 -74 6 -74 47 0 38 16
55 52 55 18 0 33 -8 44 -25z m276 -122 c34 -31 11 -93 -35 -93 -27 0 -57 28
-57 53 0 48 56 73 92 40z"/>
<path d="M2996 3814 c-39 -39 -33 -106 13 -141 27 -21 87 -16 118 11 22 19 28
32 28 66 0 34 -6 47 -28 66 -39 34 -96 33 -131 -2z"/>
<path d="M1955 4270 c3 -5 8 -10 11 -10 2 0 4 5 4 10 0 6 -5 10 -11 10 -5 0
-7 -4 -4 -10z"/>
<path d="M1974 4174 c3 -9 6 -18 6 -20 0 -2 5 -4 10 -4 6 0 10 9 10 20 0 12
-7 20 -16 20 -11 0 -14 -5 -10 -16z"/>
<path d="M4156 4257 c6 -17 44 -40 52 -32 4 3 -4 15 -18 25 -29 23 -41 25 -34
7z"/>
<path d="M3421 2701 c-17 -31 15 -111 45 -111 18 0 18 41 0 84 -18 43 -32 52
-45 27z"/>
<path d="M2857 2653 c-12 -42 -17 -113 -9 -113 9 0 25 28 36 63 7 22 -3 67
-14 67 -5 0 -11 -8 -13 -17z"/>
<path d="M881 1974 c-26 -33 -26 -39 0 -81 20 -31 21 -44 15 -126 l-6 -92 -42
-35 c-23 -19 -79 -68 -125 -108 -59 -53 -88 -72 -101 -68 -18 6 -41 65 -57
144 -4 17 -10 32 -13 32 -4 0 -17 -15 -29 -34 -20 -31 -21 -39 -12 -107 6 -41
22 -100 36 -131 20 -46 32 -59 58 -68 49 -16 82 2 90 51 4 21 4 43 0 48 -8 14
12 51 27 51 7 0 29 12 49 26 21 14 47 24 61 22 22 -3 23 -7 23 -82 l0 -80 -30
-7 c-20 -6 -36 -4 -52 6 -20 13 -22 13 -28 -6 -12 -38 43 -95 68 -70 6 6 19
11 28 11 14 0 18 -16 23 -102 7 -96 19 -197 32 -260 10 -50 22 -29 29 50 7 73
55 225 76 238 5 3 9 23 9 45 0 22 5 50 11 62 21 40 72 86 103 93 40 9 120 74
107 87 -6 6 -28 5 -61 -2 -68 -15 -70 -14 -70 10 0 28 45 70 159 148 104 71
113 93 51 123 -46 22 -76 22 -161 -2 -40 -11 -76 -17 -81 -14 -5 4 -6 39 -2
85 l7 78 -42 17 c-26 10 -47 27 -57 45 -20 39 -64 40 -93 3z m294 -274 c9 -14
-39 -85 -75 -110 -26 -19 -34 -20 -41 -9 -12 18 -11 30 2 68 15 42 97 79 114
51z m-95 -219 c0 -6 -4 -13 -10 -16 -5 -3 -10 1 -10 9 0 9 5 16 10 16 6 0 10
-4 10 -9z"/>
<path d="M4285 1953 c14 -36 14 -56 0 -83 -17 -33 -140 -136 -250 -209 -44
-30 -93 -65 -108 -80 -27 -24 -29 -25 -41 -8 -7 9 -17 17 -21 17 -14 0 -75
-72 -75 -88 0 -49 25 -194 35 -209 13 -17 14 -17 34 1 12 11 21 27 21 36 0 10
9 28 20 42 10 14 27 54 37 89 14 50 27 73 59 104 53 51 140 95 187 95 29 0 41
-7 67 -40 26 -33 33 -51 34 -93 1 -47 -1 -52 -21 -55 -15 -2 -23 -10 -23 -23
0 -32 54 -25 79 10 44 61 15 181 -57 241 -20 16 -34 31 -31 33 74 62 124 96
148 102 27 6 31 11 31 39 0 44 -53 96 -99 96 -28 0 -32 -3 -26 -17z"/>
<path d="M2150 1949 c-111 -22 -222 -84 -309 -172 -103 -105 -109 -124 -116
-347 -3 -91 -8 -185 -10 -208 -6 -52 -39 -132 -55 -132 -15 0 -4 165 15 255
17 78 30 351 17 359 -14 9 -42 -192 -77 -549 -12 -127 -12 -143 3 -167 31 -54
53 -32 103 102 17 47 34 97 36 113 6 31 21 36 29 10 32 -105 113 -196 215
-243 70 -32 74 -33 220 -34 127 -1 151 1 165 16 16 15 17 56 20 409 3 321 1
399 -11 433 -8 22 -15 48 -15 56 0 29 -60 89 -98 100 -43 11 -69 11 -132 -1z
m125 -59 c20 -13 40 -38 53 -68 45 -105 46 -114 33 -401 -6 -148 -11 -273 -10
-278 1 -4 1 -31 0 -59 -1 -45 -4 -52 -28 -63 -35 -16 -213 -30 -261 -21 -42 8
-113 42 -130 62 -25 31 37 58 134 58 95 0 94 -1 94 95 0 68 4 87 21 109 11 14
28 26 38 26 9 0 32 13 51 29 32 27 34 31 19 46 -24 25 -89 32 -104 11 -7 -9
-19 -15 -26 -14 -8 2 -19 -14 -27 -39 -10 -31 -22 -45 -47 -57 -29 -14 -65
-13 -65 1 0 3 18 23 40 44 37 36 40 43 40 92 0 34 -7 66 -21 92 -17 31 -20 49
-15 87 l7 48 -31 0 c-33 0 -109 54 -110 78 0 25 131 112 171 112 8 0 19 4 25
9 25 25 110 25 149 1z m-385 -188 c0 -6 -11 -22 -25 -34 -30 -26 -32 -44 -6
-51 35 -9 31 -107 -4 -107 -21 0 -19 -41 2 -79 18 -30 18 -30 -15 -64 -27 -27
-32 -39 -27 -60 8 -32 23 -45 61 -53 23 -4 34 0 53 20 31 33 71 35 70 4 0 -15
-17 -36 -50 -61 -27 -21 -54 -49 -59 -62 -15 -40 -34 -29 -68 38 -41 79 -72
202 -72 284 0 54 4 67 29 95 15 18 32 44 36 58 4 14 19 44 33 68 18 32 27 40
33 30 5 -7 9 -19 9 -26z m138 -134 c2 -10 -7 -17 -25 -21 -36 -7 -40 -2 -18
23 20 23 38 22 43 -2z m12 -116 c0 -31 -25 -72 -43 -72 -7 0 -18 10 -26 22
-13 20 -11 24 20 50 42 35 49 35 49 0z m-120 -97 c0 -12 -21 -25 -41 -25 -13
0 -11 34 3 48 13 13 38 -2 38 -23z m176 -109 c9 -24 -14 -54 -52 -66 -57 -19
-63 1 -13 44 47 40 57 43 65 22z"/>
<path d="M2137 1713 c-2 -5 -10 -29 -17 -56 -11 -42 -11 -50 4 -66 26 -29 65
-35 87 -15 22 20 23 40 6 70 -16 28 -74 77 -80 67z"/>
<path d="M3796 1910 c-8 -63 2 -150 21 -172 20 -22 59 -31 84 -18 26 14 41 54
33 87 -6 23 -105 144 -124 151 -4 1 -10 -20 -14 -48z"/>
<path d="M4191 1934 c-54 -29 -82 -30 -106 -4 -59 65 -71 -30 -13 -99 l31 -37
71 70 c39 39 73 75 75 81 5 17 -13 14 -58 -11z"/>
<path d="M5215 1916 c-16 -12 -17 -14 -1 -27 45 -38 46 -40 40 -78 -5 -31 -3
-39 11 -45 12 -4 23 0 31 13 8 11 27 22 43 26 41 9 54 27 42 58 -12 31 -39 47
-81 47 -17 0 -39 4 -49 10 -13 6 -24 5 -36 -4z"/>
<path d="M2935 1877 c-8 -12 -15 -33 -15 -48 0 -26 -26 -61 -217 -287 -44 -53
-53 -70 -53 -103 0 -29 4 -39 16 -39 9 0 22 7 28 14 14 19 180 26 197 9 7 -7
14 -34 17 -61 4 -42 1 -52 -19 -71 -12 -11 -33 -21 -46 -21 -21 0 -23 4 -23
51 l0 51 -32 -40 c-18 -22 -43 -43 -55 -46 -21 -6 -23 -12 -23 -87 0 -64 3
-81 16 -86 23 -9 84 23 84 44 1 10 17 28 37 41 44 28 57 20 73 -48 13 -56 38
-83 72 -78 21 3 23 7 20 53 -1 28 -9 74 -18 104 -18 62 -12 86 35 155 17 25
31 49 31 55 0 20 -32 11 -52 -14 -11 -14 -23 -23 -28 -20 -18 11 8 62 48 90
50 37 54 63 12 72 -17 3 -33 10 -36 14 -3 5 -16 9 -29 9 -18 0 -26 -8 -35 -35
-15 -45 -53 -65 -125 -65 -41 0 -55 4 -55 14 0 8 3 16 8 18 4 2 30 32 59 68
28 36 67 81 87 99 20 19 36 40 36 47 0 16 67 74 85 74 23 0 18 24 -12 52 -39
36 -70 41 -88 15z"/>
<path d="M3327 1848 c-28 -18 -47 -38 -47 -49 0 -28 -38 -44 -59 -25 -22 20
-60 21 -68 0 -3 -8 4 -25 16 -38 27 -28 27 -77 1 -101 -24 -22 -25 -45 -4
-104 l15 -44 -39 -56 c-81 -116 -73 -250 10 -171 17 17 39 30 48 30 10 0 29
12 44 27 21 20 29 24 35 14 5 -7 9 -76 10 -154 2 -221 12 -368 25 -364 6 2 14
34 18 72 8 84 33 201 59 278 11 33 19 84 19 122 0 71 -5 62 78 135 29 26 22
55 -21 91 l-31 27 3 130 c2 130 2 131 -23 153 -14 13 -26 28 -26 35 0 25 -16
22 -63 -8z m-33 -276 c-1 -133 -9 -172 -36 -172 -12 0 -32 -10 -45 -22 -13
-12 -26 -19 -29 -15 -7 6 35 84 68 126 22 29 23 60 2 98 -14 26 -14 31 1 67
26 61 39 33 39 -82z"/>
<path d="M4805 1751 l-60 -6 0 -39 c0 -31 6 -43 28 -60 22 -16 31 -18 46 -9
25 16 39 4 66 -56 35 -74 42 -119 20 -127 -10 -4 -25 -3 -34 3 -17 10 -83 9
-100 -1 -15 -10 -39 -96 -61 -221 -11 -60 -23 -123 -28 -140 -12 -42 -5 -59
56 -142 47 -64 57 -73 86 -73 45 0 56 16 56 84 0 34 9 89 22 127 20 62 20 73
9 136 -7 37 -13 82 -14 100 -1 17 -12 42 -25 55 -44 48 -15 53 40 8 33 -27 40
-30 60 -19 33 17 38 28 38 91 0 49 -4 62 -29 90 -47 55 -65 97 -52 125 16 34
14 70 -5 77 -16 6 -23 6 -119 -3z"/>
<path d="M5425 1732 c-50 -21 -126 -66 -186 -109 -55 -39 -74 -42 -64 -10 15
48 17 78 5 92 -18 22 -32 7 -70 -76 -36 -78 -42 -146 -19 -195 25 -52 89 -35
89 24 0 32 68 100 174 171 122 82 141 84 152 9 5 -32 2 -35 -83 -95 -85 -61
-89 -63 -150 -63 -64 0 -79 -11 -43 -30 26 -14 25 -31 -5 -76 -29 -43 -32 -75
-8 -115 17 -28 16 -30 -5 -56 -29 -37 -42 -67 -49 -120 -7 -52 1 -54 65 -17
50 30 82 62 109 112 10 17 21 32 25 32 11 0 10 -58 -1 -64 -4 -3 -11 -22 -15
-43 -7 -43 29 -162 52 -170 7 -3 38 7 67 22 51 25 60 27 134 20 71 -6 80 -5
89 12 13 24 -1 49 -32 57 -17 4 -25 15 -30 40 -7 34 -37 71 -49 59 -4 -3 -7
-22 -7 -42 0 -20 -4 -41 -8 -48 -4 -6 -37 -17 -72 -22 -92 -15 -97 -8 -83 109
8 63 9 100 1 127 -11 40 -14 34 59 93 19 15 4 50 -23 50 -12 0 -25 -4 -28 -9
-8 -12 -147 -81 -164 -81 -6 0 -12 9 -12 20 0 23 60 66 113 81 25 7 41 18 47
34 5 13 19 29 32 36 13 7 47 30 76 52 l52 39 0 74 c0 62 -3 75 -19 84 -28 14
-70 12 -116 -8z"/>
<path d="M4090 1433 c-68 -11 -140 -59 -140 -94 0 -26 12 -29 57 -14 44 15
110 5 119 -18 2 -7 -5 -39 -16 -71 -27 -80 -26 -86 15 -86 31 0 35 -3 35 -26
0 -35 -49 -54 -179 -67 l-103 -11 -19 25 -19 24 -26 -29 c-14 -16 -24 -38 -22
-50 3 -20 8 -21 108 -19 58 2 141 9 185 18 85 16 95 13 95 -32 0 -37 -11 -53
-49 -72 -48 -24 -109 -31 -184 -21 -34 5 -63 7 -66 4 -3 -2 5 -14 16 -26 34
-34 214 -43 262 -14 18 11 55 87 66 136 l11 45 71 11 c117 20 150 53 65 65
-23 3 -45 8 -48 12 -4 4 -22 -3 -41 -14 -27 -17 -36 -19 -48 -9 -8 7 -15 21
-15 32 0 11 -11 33 -25 50 -30 36 -32 71 -5 129 22 50 24 77 7 100 -13 17 -67
29 -107 22z"/>
<path d="M560 713 c-28 -10 -69 -56 -75 -84 -9 -39 11 -94 40 -113 31 -20 94
-20 120 1 l20 16 -20 -8 c-50 -20 -72 -17 -94 10 -23 30 -28 93 -10 126 5 11
25 29 42 39 25 16 27 20 12 19 -11 0 -27 -3 -35 -6z"/>
<path d="M1492 704 c-25 -17 -30 -61 -9 -86 6 -8 29 -25 50 -37 40 -24 48 -53
20 -70 -15 -9 -16 -10 -2 -11 25 0 51 35 47 66 -2 19 -16 37 -48 59 -52 37
-64 70 -28 84 13 6 16 10 8 10 -9 1 -26 -6 -38 -15z"/>
<path d="M2263 713 c-28 -5 -72 -49 -79 -80 -10 -39 5 -91 33 -113 33 -26 105
-28 124 -2 11 14 11 15 -1 5 -22 -20 -67 -15 -90 9 -15 16 -20 35 -20 72 1 54
9 71 50 99 25 17 23 18 -17 10z"/>
<path d="M4464 710 c-11 -4 -33 -23 -48 -41 -24 -28 -27 -39 -23 -78 7 -60 41
-91 101 -91 28 0 48 6 57 17 13 15 12 15 -8 5 -60 -32 -103 2 -103 81 0 59 20
97 51 97 10 0 19 5 19 10 0 12 -17 12 -46 0z"/>
<path d="M5201 703 c-65 -32 -79 -134 -26 -180 36 -31 104 -32 131 -1 l19 22
-25 -17 c-59 -41 -110 -5 -110 78 0 54 9 71 50 99 32 21 5 21 -39 -1z"/>
<path d="M636 689 c20 -23 24 -23 24 -5 0 7 -9 16 -21 19 -20 5 -20 5 -3 -14z"/>
<path d="M720 621 c0 -49 -3 -96 -6 -105 -5 -12 1 -16 23 -16 30 0 30 0 25 50
l-5 50 43 0 43 0 -5 -50 c-5 -48 -4 -50 21 -50 l26 0 0 105 c0 102 -1 105 -22
105 -21 0 -23 -5 -23 -45 l0 -45 -41 0 -41 0 4 45 c3 41 1 45 -19 45 -22 0
-23 -3 -23 -89z"/>
<path d="M957 619 c2 -59 0 -96 -8 -105 -9 -12 -5 -14 22 -14 l34 0 -3 105
c-3 101 -4 105 -26 105 -21 0 -22 -2 -19 -91z"/>
<path d="M1060 700 c0 -5 13 -24 28 -42 16 -18 48 -59 71 -90 24 -32 47 -58
51 -58 5 0 9 45 9 100 1 55 -3 100 -7 100 -5 0 -6 -27 -4 -60 2 -33 0 -60 -4
-60 -5 0 -29 27 -52 60 -33 45 -50 60 -68 60 -13 0 -24 -4 -24 -10z"/>
<path d="M1285 623 c1 -49 -3 -96 -8 -106 -8 -16 -2 -18 70 -15 66 3 78 6 81
21 4 18 2 18 -22 2 -13 -9 -35 -15 -48 -13 -19 2 -23 10 -26 46 -2 32 0 42 12
42 8 0 20 -8 25 -17 8 -15 10 -10 11 21 0 38 0 39 -20 21 -18 -16 -20 -16 -26
-1 -3 9 -4 32 -2 51 4 32 2 35 -22 35 l-26 0 1 -87z"/>
<path d="M1396 688 c10 -13 20 -25 21 -27 2 -2 3 8 3 22 0 21 -5 27 -22 27
-21 0 -21 0 -2 -22z"/>
<path d="M1560 703 c0 -5 7 -18 15 -29 15 -18 15 -18 13 5 -3 23 -28 44 -28
24z"/>
<path d="M1648 605 l-3 -106 74 3 c60 2 75 6 77 19 2 15 -1 15 -25 3 -49 -26
-74 -14 -79 38 -4 29 14 46 31 29 19 -19 27 -12 27 21 0 25 -3 29 -12 20 -7
-7 -17 -12 -24 -12 -15 0 -23 54 -12 74 7 13 3 16 -21 16 l-30 0 -3 -105z"/>
<path d="M1752 699 c10 -5 22 -17 27 -27 9 -14 10 -13 11 11 0 23 -4 27 -27
27 -24 -1 -25 -2 -11 -11z"/>
<path d="M2320 704 c0 -2 9 -13 20 -24 19 -19 20 -19 20 -1 0 10 -9 21 -20 24
-11 3 -20 3 -20 1z"/>
<path d="M2475 677 c-14 -35 -14 -38 5 -57 32 -32 26 -54 -13 -47 -28 4 -34 1
-46 -21 -23 -48 -23 -52 -8 -52 10 0 17 11 19 28 3 23 8 27 41 30 35 3 38 1
43 -27 6 -26 11 -31 35 -31 32 0 34 2 19 28 -6 9 -26 55 -45 102 l-34 85 -16
-38z"/>
<path d="M2628 605 l-3 -105 48 0 c26 0 60 6 76 14 67 35 68 146 2 181 -42 21
-46 19 -22 -11 29 -37 29 -126 0 -155 -35 -35 -44 -20 -47 84 -3 95 -3 97 -27
97 -23 0 -24 -2 -27 -105z"/>
<path d="M2848 605 l-3 -106 75 3 c70 3 75 5 78 26 l4 24 -30 -22 c-16 -12
-40 -20 -53 -18 -23 3 -23 5 -20 101 l2 97 -25 0 c-25 0 -25 0 -28 -105z"/>
<path d="M2935 703 c11 -3 25 -11 32 -19 7 -10 13 -12 18 -5 11 19 -5 31 -38
30 -21 -1 -25 -3 -12 -6z"/>
<path d="M3050 683 c0 -21 3 -24 10 -13 7 12 11 10 18 -10 58 -163 64 -172 76
-126 3 13 9 32 13 42 4 11 3 15 -4 11 -7 -4 -20 17 -35 55 -20 54 -28 63 -51
66 -24 3 -27 0 -27 -25z"/>
<path d="M3206 693 c-3 -10 -9 -25 -12 -33 -4 -8 1 -6 10 5 15 19 16 14 14
-73 l-3 -92 34 0 c28 0 31 2 21 14 -7 10 -10 45 -8 105 l3 91 -26 0 c-16 0
-29 -7 -33 -17z"/>
<path d="M3320 707 c0 -2 15 -31 34 -66 28 -53 32 -68 26 -102 -7 -39 -7 -39
24 -39 31 0 31 0 28 45 -3 30 1 54 12 70 9 14 12 25 7 25 -5 0 -11 -7 -15 -15
-10 -26 -23 -16 -45 35 -18 41 -26 50 -46 50 -14 0 -25 -1 -25 -3z"/>
<path d="M3470 694 c0 -14 3 -14 15 -4 8 7 15 14 15 16 0 2 -7 4 -15 4 -8 0
-15 -7 -15 -16z"/>
<path d="M3703 686 c-25 -21 -28 -31 -28 -81 0 -50 3 -60 28 -81 36 -31 72
-34 39 -4 -31 29 -32 136 -2 168 29 31 0 30 -37 -2z"/>
<path d="M3812 672 c17 -30 20 -47 14 -85 -4 -27 -16 -57 -27 -68 -18 -18 -18
-19 -1 -19 10 0 30 13 45 28 22 23 27 37 27 79 0 45 -4 54 -31 77 -43 36 -51
32 -27 -12z"/>
<path d="M3920 621 c0 -49 -3 -96 -6 -105 -5 -13 1 -16 26 -16 31 0 32 1 26
38 -7 50 6 71 34 54 18 -11 20 -10 20 13 0 22 -3 24 -19 15 -31 -16 -33 -13
-29 40 3 49 2 50 -24 50 l-28 0 0 -89z"/>
<path d="M4010 703 c8 -3 23 -12 33 -21 15 -14 17 -13 17 6 0 18 -6 22 -32 21
-18 0 -26 -3 -18 -6z"/>
<path d="M4242 698 c-18 -18 -14 -66 6 -85 11 -10 33 -26 50 -35 33 -18 41
-45 20 -66 -7 -7 -8 -12 -2 -12 21 0 45 38 42 66 -2 19 -16 37 -48 59 -36 26
-45 38 -43 59 2 28 -6 33 -25 14z"/>
<path d="M4323 692 c8 -9 17 -24 20 -32 3 -9 6 -4 6 11 1 19 -5 28 -20 32 -19
5 -19 4 -6 -11z"/>
<path d="M4530 703 c0 -2 9 -12 20 -23 l20 -20 0 23 c0 16 -6 23 -20 23 -11 0
-20 -2 -20 -3z"/>
<path d="M4625 605 l0 -105 25 0 25 0 0 105 0 105 -25 0 -25 0 0 -105z"/>
<path d="M4748 620 c3 -64 1 -94 -8 -105 -12 -14 -4 -16 66 -13 67 3 79 6 82
21 4 18 2 18 -22 2 -13 -9 -35 -15 -48 -13 -19 2 -23 10 -26 46 -3 45 11 56
34 25 12 -16 13 -14 14 21 0 37 -1 38 -18 23 -24 -22 -32 -13 -32 35 0 35 2
38 29 38 20 0 35 -8 45 -22 l16 -22 0 27 c0 27 -1 27 -68 27 l-68 0 4 -90z"/>
<path d="M4938 685 c2 -14 10 -25 16 -25 7 0 25 -18 42 -40 16 -22 43 -59 59
-81 l30 -40 3 41 c2 30 -2 45 -16 58 -10 9 -35 38 -56 65 -25 31 -45 47 -60
47 -19 0 -22 -4 -18 -25z"/>
<path d="M5076 695 c4 -8 7 -15 9 -15 2 0 5 7 9 15 3 9 0 15 -9 15 -9 0 -12
-6 -9 -15z"/>
<path d="M5300 702 c-14 -6 -14 -9 2 -24 17 -17 18 -17 18 7 0 14 -1 25 -2 24
-2 0 -10 -3 -18 -7z"/>
<path d="M5375 605 l0 -105 73 0 c66 0 72 2 72 20 0 19 -1 20 -24 4 -14 -8
-35 -14 -48 -12 -19 2 -23 10 -26 46 -3 45 11 56 34 25 12 -16 13 -14 14 21 0
38 0 39 -20 21 -18 -16 -20 -16 -26 -1 -4 9 -4 32 -1 51 5 33 4 35 -21 35
l-27 0 0 -105z"/>
<path d="M5477 698 c12 -6 24 -18 26 -27 3 -9 5 -4 6 12 1 23 -3 27 -26 26
-27 0 -27 -1 -6 -11z"/>
<path d="M5569 686 c-18 -39 -3 -73 42 -96 45 -24 57 -44 40 -71 -14 -24 1
-25 22 -1 32 35 22 69 -34 109 -41 29 -50 41 -46 60 6 30 -10 30 -24 -1z"/>
<path d="M5650 702 c0 -4 7 -16 15 -26 15 -19 15 -19 15 1 0 11 -7 23 -15 27
-8 3 -15 2 -15 -2z"/>
<path d="M2040 675 c-7 -19 -5 -33 11 -60 19 -32 20 -35 4 -42 -10 -3 -26 -1
-35 5 -15 9 -19 7 -24 -11 -3 -11 -3 -23 -1 -26 3 -2 5 1 5 7 0 7 16 12 39 12
31 0 41 -4 46 -20 3 -11 3 -24 0 -30 -4 -6 8 -10 29 -10 33 0 47 12 28 24 -4
2 -23 43 -42 90 -19 47 -38 86 -43 86 -4 0 -12 -11 -17 -25z"/>
<path d="M4941 590 c0 -37 -6 -71 -13 -78 -9 -9 -8 -12 8 -12 19 0 20 5 17 63
-6 90 -11 101 -12 27z"/>
<path d="M3052 585 c-1 -34 -7 -66 -14 -73 -9 -9 -6 -12 16 -12 22 0 26 3 18
13 -6 7 -13 40 -15 72 l-3 60 -2 -60z"/>
<path d="M2920 620 c-13 -8 -13 -11 3 -27 16 -16 17 -16 17 10 0 30 0 30 -20
17z"/>
<path d="M4222 540 c2 -17 11 -27 27 -32 14 -4 25 -6 26 -5 1 1 -12 16 -27 32
l-29 30 3 -25z"/>
<path d="M1470 531 c0 -11 9 -21 22 -24 28 -8 29 -6 1 20 -21 20 -23 21 -23 4z"/>
<path d="M5560 530 c0 -20 5 -25 26 -27 20 -1 23 1 13 10 -7 7 -19 19 -26 27
-11 13 -12 11 -13 -10z"/>
<path d="M1970 515 c-10 -13 -9 -15 8 -15 15 0 20 5 16 15 -4 8 -7 15 -9 15
-1 0 -8 -7 -15 -15z"/>
<path d="M1055 510 c-3 -5 3 -10 15 -10 12 0 18 5 15 10 -3 6 -10 10 -15 10
-5 0 -12 -4 -15 -10z"/>
</g>
</svg>
