<?xml version="1.0" standalone="no"?>
<!DOCTYPE svg PUBLIC "-//W3C//DTD SVG 20010904//EN"
 "http://www.w3.org/TR/2001/REC-SVG-20010904/DTD/svg10.dtd">
<svg version="1.0" xmlns="http://www.w3.org/2000/svg"
 width="1280.000000pt" height="420.000000pt" viewBox="0 0 1280.000000 420.000000"
 preserveAspectRatio="xMidYMid meet">

<g transform="translate(0.000000,420.000000) scale(0.100000,-0.100000)"
fill="#000000" stroke="none">
<path d="M10272 2147 c-562 -1097 -1022 -1997 -1022 -2000 0 -4 177 -7 393 -7
l392 0 142 302 141 303 729 3 728 2 90 -302 90 -303 392 -3 393 -2 -45 127
c-1403 4026 -1348 3873 -1376 3873 -24 0 -87 -119 -1047 -1993z m958 518 c0
-62 77 -342 300 -1087 30 -98 51 -180 48 -183 -3 -3 -217 -4 -476 -3 l-471 3
268 590 c147 325 276 615 286 645 21 65 23 70 36 70 5 0 9 -16 9 -35z"/>
<path d="M5450 4029 c-920 -80 -1602 -671 -1835 -1589 -57 -226 -70 -335 -70
-620 0 -232 3 -279 22 -380 105 -546 393 -955 833 -1179 270 -138 552 -201
898 -201 339 1 614 68 945 230 l102 51 40 459 c22 253 39 460 37 460 -2 0 -29
-24 -60 -54 -217 -206 -499 -348 -777 -391 -134 -21 -387 -16 -505 10 -343 76
-585 276 -709 587 -160 398 -93 964 159 1353 71 109 251 285 356 348 236 140
479 197 789 183 165 -7 252 -21 369 -60 179 -61 337 -169 462 -318 26 -32 50
-56 52 -54 2 3 23 203 46 446 l42 442 -46 30 c-25 16 -90 51 -145 78 -298 146
-628 202 -1005 169z"/>
<path d="M250 3948 c0 -13 -45 -531 -101 -1153 -99 -1111 -100 -1134 -96
-1350 7 -302 40 -451 152 -681 182 -374 505 -609 935 -681 124 -20 381 -20
517 1 357 54 650 199 883 436 234 238 400 580 464 955 13 74 226 2411 226
2475 0 20 -9 20 -369 20 l-370 0 -6 -42 c-3 -24 -53 -567 -111 -1208 -58 -641
-112 -1199 -120 -1240 -58 -282 -204 -490 -419 -596 -133 -65 -223 -86 -380
-87 -243 -1 -412 71 -526 223 -94 124 -129 244 -136 460 -4 138 7 280 96 1294
56 626 101 1152 101 1167 l0 29 -370 0 -370 0 0 -22z"/>
<path d="M7255 3958 c-4 -15 -336 -3752 -335 -3785 l0 -23 1104 0 1103 0 13
128 c7 70 22 227 34 349 l22 223 -738 0 -739 0 6 48 c11 91 265 3005 265 3039
l0 33 -365 0 c-284 0 -366 -3 -370 -12z"/>
</g>
</svg>
